<svg width="25" height="21" viewBox="0 0 25 21" fill="none" xmlns="http://www.w3.org/2000/svg">
<path d="M4.75006 15.3219C4.75006 16.0271 5.32618 16.5983 6.03601 16.5983H6.0545C5.3338 16.5983 4.75006 16.0271 4.75006 15.3219Z" fill="#FBBC05"/>
<path d="M15.8006 5.43004V8.76241L20.2933 5.1386V1.92004C20.2933 1.21485 19.7172 0.643677 19.0074 0.643677L9.27412 0.643677L9.26543 5.43004L15.8006 5.43004Z" fill="#FBBC05"/>
<path d="M15.8009 12.0962H9.25485L9.24724 16.5986H19.0077C19.7186 16.5986 20.2936 16.0274 20.2936 15.3222V12.4163L15.8009 8.76381V12.0962Z" fill="#34A853"/>
<path d="M9.27427 0.643677L4.75006 5.43004L9.26666 5.43004L9.27427 0.643677Z" fill="#EA4335"/>
<path d="M4.75006 12.0959L4.75006 15.3219C4.75006 16.0271 5.3338 16.5982 6.0545 16.5982H9.2471L9.25471 12.0959H4.75006Z" fill="#1967D2"/>
<g filter="url(#filter0_d_0_89)">
<path d="M9.26666 5.43004L4.75006 5.43004L4.75006 12.0958H9.25471L9.26666 5.43004Z" fill="#4285F4"/>
</g>
<path d="M24.2436 14.1873V3.23182C23.9903 1.77783 22.3956 3.44455 22.3956 3.44455L20.2944 5.13892V12.4153L23.3022 14.8606C24.3881 15.0031 24.2436 14.1873 24.2436 14.1873Z" fill="#34A853"/>
<path d="M15.8007 8.76241L20.2944 12.416V5.13966L15.8007 8.76241Z" fill="#188038"/>
<defs>
<filter id="filter0_d_0_89" x="0.750061" y="5.43004" width="12.5166" height="14.6658" filterUnits="userSpaceOnUse" color-interpolation-filters="sRGB">
<feFlood flood-opacity="0" result="BackgroundImageFix"/>
<feColorMatrix in="SourceAlpha" type="matrix" values="0 0 0 0 0 0 0 0 0 0 0 0 0 0 0 0 0 0 127 0" result="hardAlpha"/>
<feOffset dy="4"/>
<feGaussianBlur stdDeviation="2"/>
<feComposite in2="hardAlpha" operator="out"/>
<feColorMatrix type="matrix" values="0 0 0 0 0 0 0 0 0 0 0 0 0 0 0 0 0 0 0.25 0"/>
<feBlend mode="normal" in2="BackgroundImageFix" result="effect1_dropShadow_0_89"/>
<feBlend mode="normal" in="SourceGraphic" in2="effect1_dropShadow_0_89" result="shape"/>
</filter>
</defs>
</svg>
